<svg xmlns="http://www.w3.org/2000/svg" width="920" height="770" viewBox="0 0 920 770" version="1.1">
	<path fill-opacity="0.110" d="M 845.500 12.129 C 812.257 48.261, 744.988 111.505, 699.104 149.766 L 691.709 155.933 681.240 145.938 C 652.752 118.739, 611.352 93.300, 571.409 78.450 C 546.718 69.271, 523.377 63.500, 494.911 59.536 C 466.572 55.590, 441.209 54.541, 418.500 56.377 C 396.537 58.152, 375.162 61.141, 363 64.136 C 297.646 80.231, 241.206 111.799, 191.626 159.987 C 131.103 218.813, 95.578 290.666, 86.802 372 C 85.207 386.781, 85.222 436.046, 86.826 451 C 91.334 493.037, 102.191 533.006, 117.712 564.706 L 123.198 575.913 120.881 579.206 C 119.606 581.018, 113.984 588.366, 108.388 595.535 C 90.666 618.240, 70.186 651.305, 63.919 667.330 C 59.592 678.395, 58.747 690.623, 61.885 696.774 C 66.188 705.210, 78.448 708.952, 95.537 707.046 C 118.974 704.433, 155.687 694.302, 185.750 682.152 L 198.001 677.201 206.750 684.219 C 265.780 731.567, 324.135 757.121, 396.950 767.510 C 412.397 769.714, 417.799 770, 444 770 C 470.315 770, 475.536 769.721, 491.050 767.488 C 529.257 761.986, 559.726 753.226, 592 738.464 C 616.130 727.427, 644.311 709.995, 666.500 692.380 C 680.359 681.378, 714.115 647.702, 724.570 634.448 C 765.625 582.403, 789.388 528.286, 799.194 464.500 C 801.252 451.111, 801.500 445.956, 801.500 416.500 C 801.500 394.382, 801.060 380.367, 800.165 374 C 797.742 356.771, 795.067 341.661, 792.414 330.240 L 789.800 318.980 794.018 310.240 C 830.749 234.134, 853.614 154.372, 859.017 83.500 C 860.286 66.859, 860.584 16.968, 859.477 6.627 C 859.054 2.682, 858.308 0.035, 857.634 0.087 C 857.010 0.134, 851.550 5.553, 845.500 12.129 M 835.500 46.050 C 830.550 51.517, 819.750 62.426, 811.500 70.292 C 788.303 92.410, 776.668 102.650, 714.250 155.883 C 708.063 161.161, 703 165.873, 703 166.357 C 703 166.840, 706.083 170.670, 709.852 174.868 C 718.920 184.970, 719.632 186.380, 717.399 189.817 C 712.826 196.858, 694.501 222.049, 684.167 235.500 C 590.471 357.460, 465.404 465.609, 295.963 571.192 C 281.408 580.261, 266.471 589.440, 262.769 591.591 C 259.067 593.741, 256.030 596.009, 256.019 596.632 C 255.959 600.197, 272.183 615.362, 281.900 620.824 L 285.860 623.049 297.680 616.903 C 321.130 604.710, 328.902 600.473, 354 586.203 C 456.126 528.138, 547.307 462.117, 637.500 380.929 C 668.242 353.257, 733.306 287.563, 757.506 259.763 C 760.253 256.607, 763.189 254.020, 764.031 254.013 C 764.873 254.006, 766.071 255.238, 766.693 256.750 C 773.631 273.614, 779.366 288.450, 780.639 292.829 C 781.497 295.783, 782.546 297.817, 782.968 297.350 C 784.614 295.530, 802.439 250.042, 809.949 228.500 C 816.283 210.328, 827.182 172.946, 830.065 159.500 C 838.812 118.706, 842.553 90.229, 843.827 54.749 C 844.197 44.436, 844.500 36.023, 844.500 36.054 C 844.500 36.085, 840.450 40.583, 835.500 46.050 M 421.500 71.478 C 420.950 71.718, 412.851 72.870, 403.501 74.039 C 325.411 83.800, 260.569 113.999, 207.210 165.458 C 160.858 210.159, 127.021 269.874, 111.474 334.410 C 100.408 380.345, 98.874 430.069, 107.077 477 C 115.907 527.523, 136.753 575.288, 168.264 617.204 C 227.735 696.310, 315.327 744.932, 413.678 753.429 C 491.432 760.148, 561.663 743.376, 626.500 702.608 C 666.559 677.419, 700.920 643.429, 727.267 602.929 C 747.135 572.388, 763.225 536.892, 772.544 503.042 C 780.209 475.198, 783.994 448.568, 784.701 417.500 C 785.717 372.859, 778.846 331.907, 763.252 289.646 L 759.616 279.793 753.058 286.676 C 746.437 293.625, 717.580 324.918, 710.597 332.721 L 706.820 336.942 710.391 351.221 C 716.203 374.455, 717.463 385.307, 717.448 412 C 717.435 437.246, 716.204 449.153, 711.357 470.948 C 700.792 518.448, 675.203 568.726, 644.656 602 C 602.783 647.611, 548.467 677.379, 488.670 687.489 C 458.361 692.614, 412.545 691.762, 383.082 685.527 C 328.169 673.905, 282.454 649.436, 243.912 611.035 C 227.841 595.023, 219.565 585.079, 208.510 568.500 C 184.904 533.097, 170.682 495.521, 163.849 450.500 C 160.644 429.381, 160.620 393.909, 163.798 373.767 C 168.030 346.947, 173.806 326.443, 183.733 303 C 210.633 239.475, 265.803 184.292, 329.922 156.777 C 342.708 151.290, 353.924 147.419, 368 143.632 C 376.784 141.269, 381.600 140.381, 405 136.809 C 410.534 135.964, 423.097 135.539, 441 135.591 C 464.014 135.658, 470.831 136.029, 482.793 137.864 C 544.142 147.279, 589.040 171.320, 642.871 223.578 C 652.175 232.610, 660.020 240, 660.305 240 C 660.874 240, 678.044 217.021, 690.939 199 L 699.168 187.500 685.763 174.431 C 623.669 113.893, 564.924 83.585, 490 73.432 C 478.363 71.855, 424.181 70.310, 421.500 71.478 M 411 153.090 C 371.972 157.401, 333.052 170.447, 301.597 189.762 C 233.102 231.822, 188.406 302.055, 179.433 381.725 C 177.626 397.765, 177.376 430.209, 178.953 444 C 183.950 487.699, 198.274 522.607, 230.245 569 C 235.740 576.975, 240.553 583.847, 240.939 584.271 C 241.841 585.261, 279 563.875, 279 562.366 C 279 562.117, 276.772 559.235, 274.048 555.962 C 268.539 549.342, 262.010 538.733, 259.457 532.250 C 258.536 529.913, 257.398 528, 256.928 528 C 256.459 528, 253.695 528.941, 250.787 530.090 C 247.879 531.240, 239.919 533.713, 233.097 535.585 C 220.624 539.010, 218 538.993, 218 535.491 C 218 534.796, 212.219 516.739, 205.154 495.364 C 193.490 460.076, 187.140 438.513, 188.127 437.548 C 188.663 437.024, 219.905 427.353, 223.600 426.567 L 226.699 425.907 227.320 406.704 C 227.662 396.142, 228.683 383, 229.589 377.500 C 230.495 372, 231.296 366.632, 231.368 365.570 C 231.472 364.052, 228.041 361.813, 215.279 355.070 C 206.358 350.357, 198.388 345.825, 197.568 345 C 196.247 343.670, 197.129 341.291, 205.349 324 C 217.513 298.414, 243.028 251, 244.632 251 C 245.576 251, 265.398 261.157, 272.244 265.149 L 278.988 269.081 294.243 256.791 C 302.632 250.031, 313.211 240.900, 317.751 236.500 L 326.005 228.500 320.993 212.651 C 318.236 203.933, 315.872 195.383, 315.740 193.651 L 315.500 190.500 343 181.227 C 384.796 167.134, 414.793 158.393, 416.275 159.875 C 416.761 160.361, 417.597 162.725, 418.134 165.129 C 418.670 167.533, 421.140 175.842, 423.622 183.593 L 428.134 197.687 448.317 198.364 C 460.462 198.772, 472.681 199.780, 479 200.895 C 484.775 201.913, 489.793 202.466, 490.152 202.123 C 490.510 201.781, 494.277 194.975, 498.522 187 C 502.767 179.025, 507.096 171.292, 508.141 169.816 L 510.042 167.133 517.524 170.543 C 539.550 180.580, 594.583 209.296, 601.450 214.335 C 603.343 215.724, 603.239 216.090, 597.976 226.633 C 594.993 232.610, 591.077 240.051, 589.276 243.168 C 587.474 246.286, 586 249.359, 586 249.997 C 586 250.636, 591.044 256.528, 597.209 263.090 C 603.374 269.653, 610.368 277.830, 612.753 281.261 C 615.137 284.693, 617.521 287.651, 618.050 287.835 C 619.678 288.403, 635.148 271.921, 641.746 262.590 L 647.992 253.756 641.097 246.128 C 630.102 233.963, 609.316 214.045, 598.998 205.786 C 563.798 177.612, 527.300 161.503, 482.500 154.368 C 471.484 152.614, 423.138 151.750, 411 153.090 M 430.500 284.056 C 386.191 288.266, 348.485 315.042, 328.486 356.500 C 318.581 377.035, 314.651 394.124, 314.689 416.500 C 314.738 445.426, 322.899 469.429, 339.367 489.077 C 345.232 496.073, 359.501 508.990, 361.373 508.997 C 364.476 509.008, 449.835 445.500, 479.500 421.108 C 510.018 396.016, 557.569 352.169, 556.777 349.851 C 555.592 346.384, 541.818 328.896, 534.478 321.541 C 506.574 293.576, 469.809 280.322, 430.500 284.056 M 690.049 352.450 L 685.618 356.965 687.794 362.233 C 688.991 365.130, 691.298 371.437, 692.922 376.249 L 695.872 384.998 693.707 386.157 C 692.516 386.794, 684.107 389.832, 675.021 392.908 L 658.500 398.500 657.874 416 C 657.530 425.625, 656.463 438.900, 655.502 445.500 C 654.541 452.100, 653.698 458.356, 653.628 459.402 C 653.528 460.892, 657.235 463.247, 670.750 470.280 C 682.319 476.300, 687.999 479.790, 687.996 480.878 C 687.994 481.770, 687.023 484.075, 685.839 486 C 684.654 487.925, 676.297 503.900, 667.268 521.500 C 649.197 556.724, 640.143 573, 638.620 573 C 638.072 573, 629.863 569.077, 620.379 564.282 L 603.134 555.565 597.107 562.142 C 593.792 565.760, 585.430 573.103, 578.525 578.461 C 571.620 583.818, 563.967 590.069, 561.518 592.351 L 557.065 596.500 561.092 607 C 565.550 618.624, 569.359 633.085, 568.229 634.092 C 567.828 634.450, 562.058 636.379, 555.406 638.379 C 548.755 640.379, 535.141 644.722, 525.154 648.030 C 500.125 656.321, 467.810 666, 466.943 665.465 C 466.549 665.221, 465.951 663.555, 465.615 661.761 C 465.278 659.967, 463.195 652.875, 460.986 646 C 458.777 639.125, 456.540 631.925, 456.015 630 L 455.060 626.500 443.833 626.844 C 431.309 627.227, 414.622 625.766, 401.740 623.158 C 391.689 621.123, 394.162 618.860, 382.784 640.500 C 378.446 648.750, 374.061 656.347, 373.039 657.382 C 371.220 659.224, 370.820 659.078, 354.840 650.781 C 345.853 646.114, 332.281 638.793, 324.679 634.510 L 310.859 626.724 305.929 629.033 C 303.218 630.303, 301 631.672, 301 632.075 C 301 633.947, 323.647 647.136, 337 653.040 C 373.723 669.277, 414.612 676.432, 456.500 673.949 C 532.040 669.471, 598.200 635.472, 644.180 577.500 C 675.289 538.279, 694.106 491.929, 699.573 441.060 C 702.361 415.115, 700.439 371.261, 695.702 352.717 L 694.480 347.935 690.049 352.450 M 551.500 473.608 C 543.877 480.496, 525.698 494.148, 503 510.031 C 481.088 525.364, 464 537.786, 464 538.381 C 464 539.015, 479.536 535.157, 486.150 532.881 C 511.097 524.295, 535.017 506.849, 547.274 488.298 C 552.409 480.528, 558.402 468.978, 557.264 469.045 C 556.844 469.069, 554.250 471.123, 551.500 473.608 M 130 592.832 C 130 593.289, 124.106 601.952, 116.902 612.082 C 83.459 659.109, 73.801 677.101, 76.412 687.506 C 79.234 698.749, 116.746 691.945, 171.243 670.308 L 185.985 664.455 177.080 654.977 L 168.175 645.500 165.338 647.080 C 163.777 647.949, 158.149 651.182, 152.831 654.263 C 147.513 657.345, 141.085 660.571, 138.546 661.433 C 128.716 664.770, 119.828 662.667, 115.153 655.898 C 109.399 647.567, 116.114 629.808, 133.128 608.358 C 135.808 604.980, 138 601.800, 138 601.290 C 138 600.780, 136.554 598.482, 134.786 596.182 C 131.734 592.211, 130 590.997, 130 592.832 M 142.500 623.565 C 132.619 636.538, 129 642.168, 129 644.564 C 129 646.719, 129.439 647, 132.809 647 C 137.098 647, 145.043 642.662, 153.083 635.931 L 157.994 631.819 152.872 624.409 C 150.055 620.334, 147.694 617, 147.625 617 C 147.556 617, 145.250 619.954, 142.500 623.565" stroke="none" fill="black" fill-rule="evenodd"/>
	<path fill-opacity="0.564" d="M 840.500 18.310 C 822.530 37.148, 780.301 78.541, 761 96.237 C 747.672 108.456, 708.620 142.625, 698.760 150.694 L 692.020 156.210 680.760 145.954 C 657.625 124.882, 628.008 104.851, 599.500 90.996 C 535.176 59.734, 450.423 48.485, 378 61.598 C 285.852 78.281, 196.811 138.091, 142.174 220.003 C 112.448 264.569, 95.785 309.308, 88.314 364.619 C 86.104 380.979, 85.780 437.693, 87.803 454 C 93.393 499.055, 105.719 542.528, 120.630 569.777 L 124.065 576.055 111.144 592.777 C 87.870 622.898, 69.231 653.191, 63.322 670.500 C 53.641 698.858, 66.294 710.628, 101 705.549 C 123.600 702.242, 150.530 694.788, 180.345 683.587 C 195.717 677.812, 198.439 677.064, 199.981 678.191 C 200.966 678.911, 207.336 683.831, 214.136 689.124 C 277.701 738.600, 346.879 764.993, 423.750 769.096 C 527.691 774.645, 622.614 738.183, 696.872 664.185 C 754.819 606.443, 790.656 533.667, 799.390 456 C 803.921 415.700, 801.318 371.735, 792.027 331.676 L 789.053 318.851 792.901 311.176 C 797.857 301.290, 806.771 281.125, 813.755 264 C 846.647 183.344, 861.877 104.416, 859.551 26.658 C 859.175 14.095, 858.560 3.067, 858.184 2.152 C 857.653 0.861, 853.691 4.481, 840.500 18.310 M 837.500 43.117 C 821.844 61.123, 783.218 96.665, 731.649 140.517 C 700.353 167.130, 702 165.693, 702 166.385 C 702 166.695, 705.392 170.673, 709.537 175.225 C 713.682 179.776, 717.324 184.484, 717.630 185.687 C 718.277 188.236, 712.247 197.230, 690.512 226.135 C 623.297 315.525, 540.011 397.010, 435.500 475.631 C 391.122 509.015, 330.622 549.682, 275 583.515 C 264.275 590.039, 255.354 595.475, 255.176 595.595 C 254.998 595.716, 255.517 597.093, 256.328 598.657 C 259.712 605.177, 281.296 623, 285.807 623 C 287.723 623, 331.873 599.440, 357.981 584.486 C 458.103 527.138, 548.972 461.216, 636.583 382.370 C 671.518 350.930, 726.931 295.190, 755.998 262.250 C 760.002 257.712, 763.605 254, 764.005 254 C 765.400 254, 779.378 288.554, 781.592 297.475 L 782.330 300.449 784.258 295.975 C 798.636 262.615, 816.770 211.620, 824.961 181.513 C 833.356 150.658, 839.604 116.866, 842.438 87 C 843.921 71.360, 845.647 34.972, 844.902 35.033 C 844.681 35.052, 841.350 38.689, 837.500 43.117 M 427.373 71.008 C 352.977 75.384, 283.645 101.331, 229.205 145.170 C 166.887 195.355, 122.568 270.079, 107.127 351 C 102.524 375.124, 101.624 385.469, 101.561 415 C 101.499 444.041, 102.168 452.976, 106.132 476 C 115.579 530.880, 138.858 581.440, 176.346 628.500 C 186.360 641.070, 214.476 669.182, 227 679.146 C 276.807 718.772, 332.729 743.068, 394.500 751.919 C 478.985 764.025, 560.167 746.299, 630.863 700.310 C 674.404 671.985, 707.827 637, 735.260 591.035 C 761.549 546.985, 777.260 500.233, 784.165 445.500 C 786.065 430.441, 785.763 386.568, 783.648 370.500 C 781.376 353.236, 776.899 331.264, 772.640 316.479 C 768.238 301.194, 760.717 280.739, 759.330 280.277 C 758.745 280.082, 752.244 286.563, 744.883 294.680 C 737.522 302.797, 726.866 314.348, 721.203 320.348 C 715.540 326.348, 709.841 332.662, 708.540 334.378 L 706.173 337.500 709.508 350.500 C 714.391 369.531, 716.080 382.119, 716.709 404.163 C 717.785 441.898, 712.339 473.902, 698.357 512 C 688.649 538.452, 668.246 573.409, 649.461 595.773 C 635.257 612.684, 612.778 632.370, 591.500 646.533 C 559.296 667.969, 524.491 681.172, 483 687.693 C 473.739 689.148, 465.562 689.497, 441 689.485 C 406.340 689.469, 398.524 688.620, 371.096 681.898 C 268.323 656.709, 188.925 573.803, 167.918 469.743 C 152.221 391.990, 168.193 314.657, 212.784 252.500 C 223.278 237.873, 229.775 230.237, 243 216.992 C 285.946 173.979, 337.811 147.422, 396.500 138.393 C 411.532 136.080, 463.953 135.700, 478.500 137.798 C 543.097 147.116, 588.419 171.052, 643.083 224.720 C 652.203 233.674, 659.911 241, 660.211 241 C 661.241 241, 697.498 191.471, 698.633 188.513 C 698.892 187.839, 698.068 186.070, 696.802 184.583 C 692.620 179.673, 664.681 153.855, 654.500 145.494 C 587.565 90.523, 512.748 65.986, 427.373 71.008 M 421 151.655 C 388.396 154.780, 365.335 160.117, 339.278 170.569 C 304.814 184.393, 276.272 203.592, 249.988 230.629 C 211.917 269.792, 188.375 318.005, 179.494 375 C 177.268 389.291, 176.406 425.355, 177.928 440.553 C 181.823 479.456, 194.037 513.502, 217.371 550.500 C 224.208 561.341, 239.812 583.766, 241.051 584.532 C 242.426 585.381, 274.485 567.295, 279.412 562.891 C 279.934 562.425, 278.514 560.112, 276.097 557.489 C 270.710 551.646, 262.715 539.188, 259.901 532.257 C 258.227 528.131, 257.352 527.041, 256.112 527.538 C 247.456 531.006, 220.214 538.729, 219.673 537.869 C 218.886 536.621, 195.436 464.300, 192.533 454.170 C 188.829 441.244, 188.239 437, 190.144 437 C 190.774 437, 197.636 435.003, 205.394 432.562 C 213.152 430.121, 221.352 427.645, 223.616 427.059 L 227.733 425.995 228.268 405.247 C 228.589 392.807, 229.456 380.897, 230.433 375.500 C 231.329 370.550, 232.161 365.863, 232.281 365.085 C 232.421 364.185, 226.047 360.227, 214.750 354.198 C 204.987 348.989, 197 344.284, 197 343.744 C 197 342.294, 211.160 312.562, 219.262 297 C 229.885 276.595, 243.994 252, 245.076 252 C 246.378 252, 263.864 260.830, 272.497 265.847 L 279.494 269.914 282.497 267.122 C 284.149 265.587, 291.350 259.594, 298.500 253.805 C 305.650 248.016, 314.927 240.079, 319.115 236.167 L 326.731 229.054 321.365 211.843 C 318.414 202.377, 316.009 193.702, 316.021 192.566 C 316.039 190.736, 320.176 189.158, 352.271 178.742 C 394.289 165.104, 413.390 159.552, 415.501 160.362 C 416.325 160.678, 417.020 161.964, 417.044 163.219 C 417.068 164.473, 419.487 172.925, 422.419 182 L 427.751 198.500 449.126 199.156 C 467.616 199.723, 486.194 201.766, 489.081 203.550 C 489.517 203.820, 491.983 200.093, 494.561 195.270 C 500.089 184.928, 509.090 168.669, 509.601 168.104 C 511.210 166.323, 600.448 212.397, 601.698 215.655 C 602.127 216.772, 591.608 238.674, 587.057 246.139 C 585.930 247.987, 585.006 249.815, 585.004 250.199 C 585.002 250.584, 590.202 256.431, 596.560 263.193 C 602.918 269.954, 610.197 278.527, 612.736 282.243 C 615.276 285.960, 617.639 289, 617.989 289 C 618.338 289, 622.094 285.597, 626.335 281.438 C 633.736 274.180, 642.708 263.023, 646.533 256.321 L 648.347 253.143 640.293 244.321 C 587.420 186.408, 534.375 158.164, 467 152.050 C 456.430 151.091, 429.317 150.858, 421 151.655 M 422 284.475 C 381.428 291.345, 347.951 316.459, 328.842 354.361 C 318.629 374.619, 314 394.011, 314 416.545 C 314 444.123, 320.856 465.335, 336.505 486.174 C 342.562 494.239, 351.177 502.660, 358.643 507.814 L 361.786 509.984 385.643 492.868 C 454.797 443.257, 502.471 404.625, 541.774 366.349 L 558.047 350.500 552.274 342.024 C 544.836 331.106, 528.353 314.016, 518.233 306.729 C 502.867 295.666, 484.085 287.769, 465.378 284.507 C 454.974 282.692, 432.624 282.676, 422 284.475 M 689.693 351.928 L 685.200 356.070 690.100 370.088 C 692.795 377.798, 695 384.420, 695 384.803 C 695 385.186, 686.509 388.347, 676.132 391.826 L 657.264 398.151 656.730 418.826 C 656.419 430.875, 655.545 443.046, 654.634 448 C 653.774 452.675, 652.943 457.601, 652.785 458.947 C 652.526 461.168, 653.934 462.133, 668.110 469.447 C 676.695 473.876, 684.749 478.199, 686.007 479.054 L 688.295 480.608 682.263 491.554 C 678.945 497.574, 672.299 510.375, 667.493 520 C 658.171 538.672, 647.935 557.875, 642.322 567.226 L 638.884 572.952 620.839 563.919 L 602.794 554.886 597.147 561.132 C 594.041 564.568, 583.941 573.388, 574.702 580.733 C 565.463 588.078, 557.649 594.750, 557.338 595.560 C 557.028 596.371, 558.648 602.056, 560.940 608.194 C 564.693 618.249, 567.946 629.553, 567.985 632.679 C 567.993 633.328, 565.638 634.545, 562.750 635.385 C 559.862 636.225, 544.900 641.010, 529.500 646.019 C 497.044 656.574, 467.987 665.321, 467.383 664.717 C 467.153 664.486, 466.362 662.093, 465.627 659.399 C 464.892 656.704, 462.313 648.095, 459.895 640.268 L 455.500 626.035 440.322 626.018 C 424.832 626, 415.601 625.130, 401.627 622.372 C 395.044 621.073, 393.536 621.038, 392.427 622.159 C 391.697 622.897, 387.771 629.800, 383.701 637.500 C 373.847 656.145, 372.724 657.986, 371.192 657.994 C 369.495 658.002, 341.243 643.379, 324.188 633.665 L 310.876 626.083 305.438 628.750 C 302.447 630.217, 300 631.740, 300 632.135 C 300 633.386, 319.100 644.949, 329.500 649.994 C 367.135 668.251, 403.029 675.766, 447.500 674.699 C 504.636 673.329, 552.728 656.875, 598 623.208 C 612.087 612.732, 637.787 587.245, 647.833 573.788 C 693.165 513.064, 710.540 439.360, 697.875 361.512 C 696.802 354.919, 695.534 349.134, 695.056 348.656 C 694.564 348.164, 692.237 349.584, 689.693 351.928 M 545.199 478.076 C 537.884 483.998, 523.259 494.966, 512.699 502.450 C 472.671 530.818, 462.301 538.510, 463.659 538.829 C 466.309 539.452, 485.494 533.890, 496.018 529.448 C 515.197 521.353, 533.487 507.464, 545.068 492.202 C 549.438 486.443, 559.635 468.205, 558.838 467.575 C 558.652 467.429, 552.515 472.154, 545.199 478.076 M 129.669 592.421 C 129.343 593.270, 121.700 604.435, 112.685 617.232 C 88.720 651.252, 81.015 663.830, 77.008 675.478 C 74.463 682.875, 74.459 687.042, 76.993 689.763 C 85.093 698.456, 111.568 693.396, 166 672.751 C 176.175 668.891, 184.882 665.389, 185.349 664.968 C 186.092 664.298, 171.651 647.138, 168.927 645.455 C 168.359 645.104, 163.756 647.277, 158.697 650.284 C 137.627 662.810, 129.269 664.961, 120.304 660.163 C 110.830 655.092, 111.920 641.334, 123.228 623.272 C 126.128 618.642, 130.873 611.960, 133.774 608.424 C 138.877 602.204, 139.002 601.905, 137.614 599.247 C 136.824 597.736, 134.847 595.235, 133.220 593.688 C 130.800 591.388, 130.154 591.157, 129.669 592.421 M 143.224 621.750 C 140.930 624.913, 136.819 630.399, 134.087 633.943 C 128.654 640.990, 127.289 644.439, 129.079 646.596 C 130.683 648.528, 133.692 648.323, 138.987 645.921 C 144.320 643.502, 158 633.406, 158 631.890 C 158 631.014, 148.147 616, 147.572 616 C 147.474 616, 145.517 618.587, 143.224 621.750" stroke="none" fill="black" fill-rule="evenodd"/>
	<path fill-opacity="0.778" d="M 819 40.050 C 773.113 86.127, 757.453 100.655, 707.131 143.837 L 691.763 157.025 681.463 147.105 C 670.148 136.206, 647.855 119.110, 631.806 109.022 C 618.596 100.718, 590.526 86.531, 576.932 81.287 C 529.077 62.826, 470.924 53.811, 420.136 56.979 C 357.267 60.901, 300.769 80.048, 248 115.317 C 164.816 170.913, 109.272 251.695, 92.139 342 C 87.717 365.305, 86.569 379.233, 86.534 410 C 86.513 428.051, 87.015 444.157, 87.827 451.500 C 92.671 495.314, 103.907 535.993, 120.013 568.025 L 124.136 576.226 117.845 584.363 C 94.216 614.926, 82.408 632.572, 70.912 654.500 C 63.406 668.818, 60.815 676.684, 60.701 685.500 C 60.536 698.209, 65.817 703.991, 79.342 705.906 C 96.935 708.398, 138.709 699.207, 177.500 684.310 C 186.850 680.719, 195.459 677.563, 196.630 677.297 C 198.201 676.940, 201.614 679.081, 209.630 685.453 C 270.273 733.660, 334.717 760.387, 409 768.138 C 423.605 769.663, 466.248 769.636, 480 768.094 C 550.220 760.222, 611.204 735.138, 666 691.589 C 680.795 679.831, 712.348 648.550, 723.388 634.697 C 756.949 592.584, 780.404 545.361, 792.021 496.516 C 798.433 469.555, 801.064 446.145, 801.071 416 C 801.077 385.825, 798.300 361.135, 791.442 330.393 L 788.964 319.285 794.078 308.393 C 816.739 260.125, 832.201 217.323, 843.529 171.500 C 852.644 134.629, 857.051 104.454, 859.012 65.494 C 860.013 45.616, 859.517 11.080, 858.136 4.445 C 857.511 1.442, 856.842 2.051, 819 40.050 M 834.500 46.071 C 824.689 56.873, 797.081 83.279, 777.691 100.407 C 768.993 108.091, 756.965 118.420, 713.750 155.318 C 707.288 160.836, 702 165.775, 702 166.293 C 702 166.811, 705.083 170.670, 708.852 174.868 C 717.912 184.960, 718.629 186.378, 716.415 189.817 C 706.038 205.932, 675.135 246.587, 655.086 270.500 C 613.109 320.566, 554.553 378.710, 501.720 422.786 C 435.168 478.309, 363.202 529.322, 277.668 581.607 C 265.201 589.228, 255 595.861, 255 596.348 C 255 598.177, 262.273 607.043, 267.067 611.056 C 269.806 613.350, 275.043 617.194, 278.705 619.599 L 285.364 623.972 303.932 614.328 C 425.855 551.004, 545.754 466.733, 647 373.201 C 676.182 346.243, 727.445 294.342, 753.384 265.493 C 758.820 259.447, 763.569 254.380, 763.936 254.233 C 764.846 253.869, 772.769 272.766, 778.031 287.850 C 783.069 302.293, 781.618 303.246, 791.512 279 C 820.775 207.293, 837.486 144.290, 842.969 85 C 844.117 72.579, 845.577 34.980, 844.908 35.031 C 844.684 35.048, 840 40.016, 834.500 46.071 M 421.500 71.049 C 332.369 78.452, 257.137 112.702, 199.492 172.122 C 148.726 224.451, 115.442 292.226, 104.340 365.877 C 101.230 386.512, 100.039 426.427, 101.930 446.677 C 107.276 503.912, 125.018 554.245, 156.584 601.724 C 211.122 683.755, 296.159 737.787, 393.124 752.018 C 465.044 762.574, 534.745 751.507, 597.936 719.499 C 648.305 693.987, 690.831 657.180, 722.142 612 C 754.511 565.293, 776.231 508.693, 783.542 452 C 787 425.189, 786.554 388.827, 782.413 360 C 779.227 337.814, 769.232 300.962, 761.846 284.165 L 759.500 278.830 752.500 286.206 C 742.965 296.253, 713.052 328.636, 709.094 333.197 L 705.885 336.894 709.334 350.697 C 715.175 374.076, 716.470 385.372, 716.422 412.500 C 716.388 432.204, 715.981 439.069, 714.152 450.856 C 704.007 516.217, 672.607 576.648, 627.132 618.328 C 589.694 652.643, 546.945 674.746, 499.265 684.442 C 478.726 688.619, 468.125 689.504, 439.500 689.432 C 417.016 689.375, 410.159 689, 398.500 687.195 C 350.329 679.735, 309.231 662.616, 271.524 634.304 C 218.203 594.269, 180.472 533.548, 167.562 467 C 163.549 446.316, 162.517 434.775, 162.553 411 C 162.596 382.155, 165.371 361.362, 172.493 336.500 C 200.032 240.375, 280.407 163.935, 376.466 142.513 C 399.027 137.482, 408.203 136.630, 440 136.613 C 465.666 136.599, 471.366 136.888, 483.856 138.836 C 522.925 144.932, 555.470 157.488, 587.595 178.860 C 606.211 191.244, 623.064 205.231, 644.128 225.780 L 660.500 241.751 668 231.720 C 672.125 226.202, 681.047 213.996, 687.828 204.594 L 700.155 187.500 684.932 172.732 C 622.949 112.601, 564.066 82.316, 490 72.474 C 476.021 70.616, 436.586 69.796, 421.500 71.049 M 409 152.599 C 375.376 156.647, 341.653 167.015, 314.212 181.743 C 238.192 222.542, 188.598 295.817, 178.400 382.403 C 175.230 409.315, 176.720 443.804, 182.139 468.960 C 186.915 491.136, 198.307 519.370, 211.102 540.749 C 216.106 549.110, 236.069 579.059, 239.747 583.723 L 241.500 585.945 253 579.341 C 267.532 570.997, 280 563.025, 280 562.078 C 280 561.677, 278.881 560.297, 277.513 559.012 C 273.523 555.264, 265.247 542.727, 261.363 534.549 C 259.391 530.397, 257.490 527, 257.139 527.001 C 256.788 527.001, 254.025 527.943, 251 529.094 C 244.073 531.730, 220.809 538.142, 220.239 537.573 C 219.504 536.838, 197.074 469.086, 193.399 456.500 C 191.471 449.900, 189.806 442.972, 189.697 441.105 C 189.475 437.284, 188.663 437.640, 216 429.594 L 227.500 426.210 228.179 406.355 C 228.603 393.941, 229.609 382.197, 230.863 375.018 C 231.967 368.703, 232.786 363.459, 232.685 363.364 C 232.583 363.270, 225.075 359.289, 216 354.519 C 206.925 349.748, 198.870 345.234, 198.100 344.486 C 196.906 343.328, 198.922 338.668, 211.805 312.814 C 223.990 288.359, 242.256 254.411, 244.360 252.306 C 245.049 251.618, 256.692 257.202, 268.314 263.795 L 279.128 269.929 294.814 257.229 C 303.441 250.243, 314.232 240.921, 318.793 236.514 L 327.086 228.500 324.688 221.500 C 319.611 206.682, 315.677 191.924, 316.580 191.085 C 318.786 189.035, 410.804 160, 415.095 160 C 415.572 160, 416.220 161.238, 416.535 162.750 C 416.851 164.262, 419.447 172.971, 422.304 182.102 L 427.500 198.703 448.500 199.292 C 466.678 199.801, 478.150 201.007, 488 203.446 C 490.332 204.024, 490.850 203.375, 495.717 193.783 C 498.587 188.127, 502.971 180.036, 505.461 175.803 L 509.987 168.105 515.244 170.274 C 533.195 177.681, 602 214.090, 602 216.182 C 602 217.265, 593.346 234.488, 588.602 242.846 C 586.621 246.336, 585 249.634, 585 250.175 C 585 250.716, 589.971 256.450, 596.046 262.917 C 606.122 273.644, 611.711 280.356, 616.130 287.036 L 617.760 289.500 623.630 284.395 C 630.044 278.818, 640.882 265.927, 645.776 258.054 L 648.878 253.063 631.715 235.409 C 611.192 214.299, 599.222 204.037, 580.500 191.501 C 547.066 169.114, 514.499 157.244, 473.506 152.503 C 457.447 150.646, 424.823 150.694, 409 152.599 M 430.500 283.056 C 373.088 288.510, 328.361 331.049, 315.426 392.500 C 313.101 403.541, 313.040 427.586, 315.306 439.071 C 319.830 461.997, 329.786 481.038, 345.384 496.595 C 349.848 501.047, 355.387 505.927, 357.693 507.440 L 361.887 510.191 377.693 498.891 C 455.491 443.277, 510.829 398.287, 548.847 359.744 L 558.194 350.268 553.425 343.384 C 538.164 321.352, 522.220 306.926, 501.303 296.225 C 480.142 285.399, 455.021 280.727, 430.500 283.056 M 689.700 351.797 L 684.988 356.581 689.399 368.540 C 696.007 386.457, 696.542 384.730, 683 389.204 C 676.675 391.293, 668.306 394.148, 664.403 395.547 L 657.306 398.091 656.662 418.296 C 656.248 431.289, 655.316 442.426, 654.051 449.500 C 652.200 459.852, 652.185 460.577, 653.792 461.812 C 654.731 462.533, 662.552 466.728, 671.171 471.133 C 679.789 475.539, 687.059 479.710, 687.324 480.403 C 687.590 481.096, 686.441 483.859, 684.771 486.543 C 683.100 489.227, 674.227 506.065, 665.052 523.961 C 655.877 541.858, 646.230 560.199, 643.615 564.720 L 638.859 572.940 620.902 563.951 L 602.945 554.962 595.222 562.818 C 590.975 567.139, 582.737 574.324, 576.916 578.785 C 571.095 583.246, 564.034 588.962, 561.225 591.487 L 556.119 596.078 558.696 602.789 C 562.474 612.627, 566.665 625.966, 567.295 630.161 C 567.796 633.496, 567.608 633.879, 565.173 634.459 C 563.703 634.810, 547.891 639.831, 530.035 645.618 C 500.202 655.286, 467.698 665.208, 467.499 664.708 C 467.305 664.218, 460.465 641.778, 458.140 634 L 455.599 625.500 444.080 625.841 C 431.216 626.223, 414.671 624.776, 401.572 622.124 L 392.876 620.363 389.087 626.932 C 387.002 630.544, 382.685 638.566, 379.493 644.757 C 376.300 650.948, 373.114 656.490, 372.413 657.073 C 370.961 658.277, 349.610 647.822, 325.059 633.884 L 310.618 625.686 305.309 628.558 C 302.389 630.138, 300 631.757, 300 632.158 C 300 635.185, 335.866 654.228, 353.500 660.562 C 399.924 677.239, 453.468 679.890, 503.500 667.989 C 569.401 652.312, 626.449 610.961, 662.294 552.886 C 697.010 496.641, 709.451 429.547, 697.961 360.535 C 696.866 353.954, 695.619 348.219, 695.191 347.791 C 694.763 347.363, 692.292 349.165, 689.700 351.797 M 552.500 471.697 C 545.142 478.419, 528.127 491.396, 509.500 504.492 C 483.718 522.618, 460.875 539.208, 461.221 539.554 C 461.410 539.743, 465.375 539.064, 470.032 538.045 C 503.210 530.789, 532.765 511.770, 548.588 487.496 C 554.040 479.132, 559.351 468.455, 558.792 466.984 C 558.631 466.561, 555.800 468.682, 552.500 471.697 M 119.546 606.809 C 100.666 633.852, 84.625 658.250, 81.287 665.002 C 72.756 682.258, 72.867 690.151, 81.682 693.060 C 90.335 695.916, 113.099 691.722, 141 682.133 C 162.380 674.785, 186.129 665.432, 186.028 664.401 C 185.892 663.024, 169.001 645, 167.846 645 C 167.289 645, 161.955 647.947, 155.993 651.549 C 150.031 655.151, 142.655 658.976, 139.602 660.049 C 129.252 663.686, 119.819 661.914, 115.818 655.580 C 110.396 646.996, 118.291 627.121, 135.200 606.792 C 138.697 602.588, 138.986 601.839, 137.902 599.792 C 136.174 596.529, 131.879 590.989, 131.131 591.059 C 130.784 591.092, 125.571 598.180, 119.546 606.809 M 139.740 626.010 C 130.253 638.104, 127.756 642.251, 128.175 645.209 C 128.428 646.995, 129.238 647.571, 131.846 647.821 C 136.336 648.251, 143.832 644.472, 152.227 637.544 L 158.955 631.993 153.859 624.482 C 151.056 620.351, 148.470 616.790, 148.112 616.569 C 147.754 616.348, 143.987 620.596, 139.740 626.010" stroke="none" fill="black" fill-rule="evenodd"/>
	<path fill-opacity="0.909" d="M 855.280 3.613 C 854.058 5.325, 853.383 7.050, 853.780 7.446 C 854.176 7.842, 853.988 8.017, 853.362 7.833 C 852.737 7.650, 837.887 21.919, 820.362 39.542 C 802.838 57.165, 782.549 77.139, 775.275 83.928 C 768.002 90.718, 762.334 96.731, 762.680 97.291 C 763.035 97.866, 762.816 98.004, 762.177 97.610 C 761.531 97.210, 758.355 99.392, 754.762 102.705 C 751.305 105.892, 743.427 112.942, 737.255 118.371 C 731.082 123.801, 726.319 128.708, 726.670 129.276 C 727.031 129.859, 726.824 130.009, 726.197 129.621 C 725.566 129.232, 719.104 134.060, 711.292 140.756 C 703.706 147.258, 696.208 153.568, 694.630 154.777 L 691.760 156.977 681.421 147.404 C 674.989 141.448, 670.631 138.110, 669.887 138.570 C 669.150 139.025, 668.953 138.885, 669.374 138.203 C 670.177 136.905, 655.527 125.310, 639.500 114.559 C 587.836 79.904, 530.877 61.611, 460.500 57.072 C 446.568 56.174, 434.753 56.377, 412.500 57.898 C 397.402 58.930, 372.185 62.640, 370.408 64.091 C 369.807 64.581, 369.060 64.727, 368.748 64.415 C 368.436 64.102, 362.177 65.430, 354.840 67.366 C 332.589 73.235, 302.416 84.246, 303.551 86.082 C 303.855 86.574, 303.447 86.725, 302.643 86.417 C 300.914 85.753, 277.475 97.325, 264.031 105.479 C 244.591 117.271, 228.707 128.717, 229.654 130.249 C 230.046 130.883, 229.831 131.014, 229.119 130.574 C 226.258 128.805, 180.843 169.318, 182.564 172.104 C 182.991 172.794, 182.889 173.049, 182.325 172.701 C 180.051 171.296, 153.211 202.914, 154.671 205.277 C 155.022 205.844, 154.861 206.032, 154.314 205.694 C 152.979 204.869, 148.720 210.737, 149.609 212.176 C 150.026 212.851, 149.864 213.034, 149.208 212.629 C 146.574 211.001, 123.586 250.017, 113.932 272.500 C 94.505 317.741, 86.545 357.856, 86.547 410.500 C 86.549 446.664, 89.412 472.267, 96.949 503.511 C 102.313 525.748, 113.195 555.516, 121.043 569.422 C 122.669 572.304, 124 575.208, 124 575.875 C 124 576.543, 121.758 580.050, 119.018 583.669 C 116.278 587.289, 114.323 590.713, 114.673 591.280 C 115.026 591.851, 114.824 592.009, 114.219 591.635 C 111.823 590.154, 76.286 641.594, 77.489 644.802 C 77.757 645.518, 77.561 645.847, 77.052 645.532 C 75.734 644.718, 67.173 660.846, 63.839 670.421 C 60.797 679.160, 59.971 691.130, 62.122 695.316 C 66.114 703.086, 73.208 706, 88.131 706 C 108.691 706, 148.232 695.862, 186.937 680.667 L 198.374 676.177 205.437 681.904 C 268.294 732.870, 333.209 760.136, 410.500 768.034 C 423.527 769.365, 464.586 769.348, 478 768.006 C 563.850 759.417, 639.897 722.376, 701.001 659.386 C 747.224 611.737, 778.678 554.401, 792.828 492 C 799.380 463.106, 801.435 440.978, 800.674 407.500 C 799.980 376.916, 797.955 360.321, 791.311 330.770 L 788.674 319.040 794.859 306.058 C 815.370 263.003, 832.395 216.148, 843.388 172.500 C 852.403 136.703, 859.232 86.526, 858.970 58 C 858.913 51.675, 858.851 38.400, 858.834 28.500 C 858.817 18.600, 858.510 8.250, 858.151 5.500 L 857.500 0.500 855.280 3.613 M 842.668 35.576 C 843.472 37.673, 801.569 79.425, 780.129 97.890 C 775.525 101.855, 771.025 105.834, 770.129 106.733 C 769.233 107.632, 759.275 116.254, 748 125.895 C 736.725 135.535, 721.514 148.541, 714.198 154.796 C 699.137 167.676, 699.643 165.604, 709.137 175.500 C 712.303 178.800, 715.565 182.809, 716.385 184.408 C 717.852 187.268, 717.766 187.477, 711.247 196.908 C 703.430 208.218, 681.066 238.321, 672.547 249 C 648.042 279.719, 621.616 309.499, 619.838 308.400 C 619.390 308.123, 619.297 308.611, 619.632 309.484 C 620.419 311.534, 550.513 381.411, 548.462 380.624 C 547.697 380.330, 547.269 380.626, 547.485 381.301 C 548.112 383.262, 507.686 418.542, 506.004 417.503 C 505.464 417.169, 505.225 417.482, 505.472 418.198 C 505.977 419.665, 479.553 441.454, 448.170 465.449 C 397.592 504.119, 337.493 545.024, 278.500 580.930 C 269.150 586.621, 259.780 592.368, 257.678 593.700 L 253.857 596.123 256.579 599.812 C 262.941 608.432, 273.776 617.776, 282.752 622.384 L 286.004 624.054 303.480 614.954 C 313.335 609.823, 321.469 606.172, 322.132 606.582 C 322.834 607.016, 323.043 606.879, 322.650 606.243 C 322.260 605.612, 325.974 603.031, 331.746 599.920 C 337.111 597.029, 352.300 588.380, 365.500 580.701 C 378.700 573.022, 390.063 566.723, 390.750 566.703 C 391.438 566.683, 392 566.328, 392 565.915 C 392 565.501, 393.688 564.143, 395.750 562.897 C 397.813 561.651, 405.223 557.078, 412.218 552.737 C 419.622 548.140, 425.431 545.149, 426.122 545.576 C 426.841 546.020, 427.045 545.882, 426.640 545.227 C 425.795 543.859, 442.712 532.704, 444.219 533.635 C 444.854 534.028, 445.024 533.848, 444.627 533.205 C 444.249 532.593, 444.961 531.563, 446.222 530.896 C 449.255 529.293, 476.630 510.381, 496.318 496.288 C 505.018 490.061, 512.625 485.268, 513.222 485.637 C 513.829 486.013, 514.025 485.849, 513.665 485.268 C 512.818 483.897, 527.714 472.705, 529.180 473.611 C 529.818 474.006, 530.034 473.865, 529.678 473.287 C 528.856 471.959, 548.814 456.767, 550.230 457.642 C 550.843 458.021, 551.022 457.845, 550.645 457.235 C 549.814 455.891, 554.860 451.796, 556.272 452.668 C 556.842 453.021, 557.028 452.855, 556.685 452.300 C 556.342 451.744, 561.101 447.287, 567.260 442.395 C 573.419 437.503, 586.305 426.882, 595.896 418.794 C 605.486 410.705, 613.777 404.362, 614.321 404.698 C 614.864 405.034, 615.026 404.852, 614.681 404.293 C 614.336 403.734, 620.904 397.161, 629.277 389.685 C 637.649 382.209, 647.389 373.393, 650.920 370.093 C 654.451 366.792, 657.783 364.366, 658.325 364.701 C 658.866 365.035, 659.013 364.829, 658.650 364.243 C 657.815 362.892, 666.888 354.812, 668.277 355.671 C 668.844 356.022, 669.033 355.863, 668.696 355.317 C 667.893 354.018, 675.369 346.726, 676.473 347.730 C 676.939 348.153, 677.048 348.021, 676.716 347.435 C 676.084 346.323, 714.110 307.670, 715.630 307.880 C 716.108 307.946, 716.520 307.438, 716.545 306.750 C 716.570 306.063, 717.166 305.624, 717.870 305.775 C 718.573 305.926, 718.909 305.662, 718.617 305.189 C 718.324 304.716, 722.228 299.852, 727.292 294.381 C 732.357 288.911, 742.507 277.812, 749.848 269.717 C 757.189 261.623, 763.541 255, 763.963 255 C 765.614 255, 782.469 298.151, 781.629 300.228 C 781.558 300.404, 782.021 300.087, 782.657 299.524 C 783.293 298.961, 785.485 294.450, 787.527 289.500 C 817.322 217.298, 832.321 165.709, 840.439 107.500 C 844.847 75.897, 846.559 35.812, 843.551 34.658 C 842.574 34.283, 842.286 34.582, 842.668 35.576 M 419.869 71.031 C 350.682 76.814, 290.072 99.287, 235.886 139.248 C 233.091 141.310, 230.328 142.703, 229.747 142.344 C 229.166 141.985, 228.974 142.149, 229.321 142.710 C 229.667 143.270, 227.599 145.684, 224.725 148.073 C 215.518 155.729, 193.072 178.155, 183.262 189.500 C 178.031 195.550, 173.323 200.376, 172.801 200.225 C 172.279 200.074, 172.141 200.420, 172.496 200.993 C 172.850 201.566, 171.856 203.715, 170.286 205.768 C 168.717 207.820, 166.154 211.405, 164.592 213.732 C 163.030 216.060, 161.288 217.678, 160.722 217.328 C 160.149 216.974, 159.990 217.175, 160.365 217.781 C 160.736 218.381, 158.599 222.615, 155.617 227.189 C 145.326 242.977, 131.464 270.511, 124.498 289 C 122.943 293.125, 121.293 296.651, 120.830 296.835 C 120.366 297.020, 120.206 297.525, 120.474 297.957 C 120.741 298.390, 119.600 302.739, 117.939 307.622 C 113.548 320.524, 108.535 340.593, 105.979 355.500 C 104.753 362.650, 103.548 369.175, 103.300 370 C 102.749 371.834, 102.261 378.545, 101.119 400 C 98.419 450.732, 107.948 504.668, 127.448 549.018 C 129.415 553.492, 130.722 557.680, 130.352 558.326 C 129.982 558.972, 130.055 559.159, 130.513 558.743 C 130.972 558.327, 134.570 564.177, 138.508 571.743 C 142.446 579.309, 148.460 589.902, 151.873 595.283 C 155.285 600.663, 157.765 605.570, 157.384 606.187 C 156.985 606.833, 157.139 607.032, 157.747 606.657 C 158.338 606.291, 161.796 610.067, 165.617 615.252 C 177.179 630.943, 184.865 639.939, 198.917 654.227 C 210.505 666.011, 210.340 665.856, 220 674.005 C 224.675 677.949, 228.393 681.570, 228.262 682.052 C 228.131 682.534, 228.581 682.715, 229.262 682.454 C 229.943 682.193, 231.625 683.015, 233 684.281 C 234.375 685.547, 240 689.748, 245.500 693.617 C 330.290 753.254, 440.961 771.555, 540.799 742.449 C 567.568 734.645, 596.527 721.943, 620.350 707.557 C 626.317 703.954, 631.674 701.299, 632.254 701.657 C 632.834 702.016, 633.024 701.847, 632.675 701.283 C 631.851 699.950, 642.727 692.713, 644.193 693.619 C 644.821 694.007, 645.032 693.860, 644.675 693.283 C 644.326 692.718, 648.194 689.085, 653.270 685.210 C 658.347 681.334, 665.608 675.467, 669.406 672.173 C 673.204 668.878, 676.804 666.292, 677.406 666.427 C 678.008 666.562, 678.113 666.467, 677.641 666.216 C 677.169 665.966, 680.511 662.012, 685.069 657.431 C 689.626 652.850, 693.795 649.373, 694.332 649.705 C 694.869 650.037, 695.018 649.838, 694.662 649.262 C 694.306 648.686, 697.624 644.004, 702.036 638.857 C 732.180 603.694, 758.769 554.020, 771.845 508.438 C 782.902 469.893, 786.627 440.922, 785.660 401 C 784.594 356.974, 777.862 324.396, 760.893 281.143 L 759.968 278.787 756.608 281.350 C 754.759 282.760, 753.011 283.678, 752.723 283.390 C 752.436 283.102, 752.268 283.491, 752.350 284.253 C 752.489 285.539, 745.336 293.666, 716.925 324.500 C 704.594 337.883, 705.247 335.848, 708.910 349.500 C 718.608 385.646, 719.307 428.242, 710.856 468 C 707.998 481.446, 702.864 499, 701.790 499 C 701.290 499, 701.141 499.419, 701.458 499.932 C 702.311 501.311, 695.644 518.676, 688.571 533.500 C 678.086 555.474, 667.253 572.778, 651.950 592 C 643.499 602.615, 626.453 619.398, 625.021 618.513 C 624.432 618.149, 624.074 618.447, 624.225 619.176 C 624.376 619.904, 623.904 620.376, 623.176 620.225 C 622.447 620.074, 622.126 620.394, 622.461 620.936 C 623.299 622.293, 605.837 636.587, 592.500 645.461 C 578.634 654.687, 562.423 663.380, 560.872 662.421 C 560.173 661.989, 559.956 662.119, 560.340 662.741 C 561.177 664.096, 544.032 671.610, 529.134 676.419 C 499.220 686.073, 477.244 689.378, 442.500 689.449 C 415.205 689.505, 404.924 688.573, 381.692 683.937 C 344.255 676.468, 303.355 658.220, 273.500 635.668 C 261.827 626.850, 254.015 619.784, 254.705 618.668 C 255.037 618.131, 254.848 617.976, 254.285 618.324 C 253.091 619.062, 242.367 608.397, 242.775 606.877 C 242.926 606.313, 242.677 606.082, 242.221 606.363 C 240.912 607.172, 233.790 600.148, 234.597 598.844 C 235.004 598.185, 234.872 597.961, 234.290 598.321 C 232.366 599.510, 215.974 578.811, 205.172 561.550 C 146.083 467.134, 148.356 345.584, 210.888 256 C 224.048 237.146, 252.458 205.929, 255.017 207.510 C 255.796 207.992, 256.063 207.912, 255.690 207.308 C 254.785 205.843, 260.573 200.618, 262.073 201.545 C 262.850 202.025, 263.054 201.897, 262.623 201.200 C 260.924 198.451, 293.567 175.893, 314.662 165.239 C 343.232 150.810, 368.945 142.780, 400.784 138.346 C 417.509 136.016, 461.910 136.025, 479 138.361 C 518.731 143.793, 555.212 157.455, 587.135 178.859 C 607.381 192.433, 626.578 208.255, 625.304 210.317 C 624.942 210.902, 625.206 210.991, 625.947 210.532 C 627.376 209.649, 641.249 222.789, 640.377 224.199 C 640.088 224.667, 640.447 224.926, 641.176 224.775 C 641.904 224.624, 642.376 225.096, 642.225 225.824 C 642.074 226.553, 642.351 226.901, 642.842 226.598 C 644.022 225.868, 647.220 229.447, 646.252 230.414 C 645.838 230.828, 646.175 231.017, 647 230.833 C 647.830 230.649, 648.377 231.091, 648.225 231.824 C 648.074 232.553, 648.346 232.904, 648.830 232.605 C 649.881 231.955, 654.241 236.353, 653.509 237.324 C 653.229 237.696, 653.306 237.769, 653.681 237.486 C 654.055 237.203, 655.633 238.190, 657.187 239.679 C 658.916 241.336, 660.356 242.021, 660.896 241.443 C 661.382 240.925, 665.035 236.225, 669.014 231 C 672.993 225.775, 676.676 221.624, 677.199 221.775 C 677.721 221.926, 677.888 221.628, 677.569 221.112 C 676.734 219.760, 697.011 191.889, 698.266 192.664 C 698.886 193.048, 699.009 192.823, 698.568 192.111 C 698.161 191.452, 698.368 190.262, 699.027 189.467 C 700.563 187.617, 697.867 184.465, 681.522 169 C 625.749 116.229, 574.838 88.419, 510.458 75.560 C 488.096 71.093, 444.942 68.936, 419.869 71.031 M 416 151.633 C 414.625 151.832, 409.450 152.486, 404.500 153.087 C 367.038 157.633, 326.188 172.411, 295.140 192.649 C 284.721 199.440, 271.762 209.103, 266.905 213.700 C 264.928 215.572, 262.678 216.968, 261.905 216.802 C 261.132 216.636, 260.590 216.995, 260.700 217.600 C 260.810 218.205, 256.817 222.705, 251.827 227.600 C 231.538 247.501, 212.772 274.883, 199.809 303.500 C 178.671 350.162, 171.296 407.828, 179.988 458.474 C 181.118 465.059, 181.813 471.045, 181.533 471.775 C 181.252 472.506, 181.418 472.859, 181.902 472.561 C 182.385 472.262, 183.093 473.701, 183.476 475.759 C 185.968 489.177, 197.867 518.048, 208.716 537 C 215.024 548.019, 231.592 573.612, 234.760 577.231 C 236.038 578.691, 236.066 579.240, 234.936 580.731 C 233.799 582.233, 233.806 582.313, 234.986 581.262 C 236.118 580.254, 236.850 580.592, 238.938 583.086 L 241.500 586.147 251.500 580.496 C 257 577.389, 265.843 572.097, 271.151 568.737 C 280.573 562.773, 280.767 562.574, 279.321 560.367 C 278.506 559.123, 277.875 557.857, 277.920 557.553 C 277.964 557.249, 277.663 556.968, 277.250 556.929 C 274.727 556.689, 264.686 542.061, 260.414 532.402 C 259.100 529.431, 257.654 527, 257.200 527 C 256.746 527, 252.353 528.374, 247.438 530.054 C 235.247 534.220, 220.887 538.048, 219.852 537.408 C 219.383 537.119, 219 536.252, 219 535.483 C 219 534.713, 215.144 522.596, 210.432 508.556 C 205.719 494.517, 202.189 482.503, 202.586 481.860 C 202.993 481.202, 202.878 480.957, 202.324 481.300 C 201.323 481.918, 191.764 451.709, 190.128 442.758 L 189.261 438.016 195.801 436.054 C 199.398 434.975, 202.675 434.299, 203.085 434.552 C 203.494 434.805, 203.980 434.631, 204.165 434.165 C 204.498 433.322, 224.205 427, 226.498 427 C 227.366 427, 227.868 421.699, 228.319 407.750 C 228.863 390.906, 229.957 380.165, 232.475 366.934 L 233.153 363.369 217.327 355.023 C 208.622 350.432, 200.522 346.045, 199.326 345.273 L 197.152 343.869 200.927 335.685 C 217.321 300.149, 242.793 253, 245.597 253 C 247.328 253, 260.491 259.523, 271.226 265.701 C 275.833 268.353, 279.467 269.844, 280.226 269.395 C 280.927 268.980, 283.843 266.659, 286.708 264.236 C 289.820 261.602, 292.397 260.127, 293.112 260.569 C 293.817 261.005, 294.047 260.886, 293.673 260.280 C 293.324 259.715, 297.417 255.659, 302.769 251.267 C 308.121 246.876, 315.794 240.223, 319.819 236.484 C 326.205 230.552, 327.057 229.355, 326.507 227.093 C 326.161 225.667, 323.896 218.200, 321.475 210.500 C 314.781 189.208, 314.546 191.669, 323.555 188.641 C 327.797 187.214, 331.619 186.265, 332.048 186.530 C 332.478 186.795, 332.980 186.613, 333.165 186.125 C 333.894 184.195, 407.124 161.341, 408.955 162.472 C 409.436 162.769, 409.980 162.603, 410.165 162.102 C 410.349 161.601, 411.609 161.035, 412.964 160.845 C 414.878 160.577, 415.594 161.059, 416.170 163 C 416.577 164.375, 419.300 173.108, 422.220 182.407 L 427.530 199.314 447.515 199.708 C 466.698 200.085, 485.158 202.056, 487.469 203.974 C 488.073 204.476, 489.062 204.574, 489.668 204.193 C 490.862 203.441, 491.083 203.058, 502.011 182.750 C 506.777 173.893, 509.980 169, 511.011 169 C 514.567 169, 589.536 207.408, 599.230 214.196 L 601.960 216.107 594.952 230.096 C 590.458 239.067, 587.541 243.834, 586.818 243.387 C 586.115 242.953, 585.970 243.142, 586.432 243.889 C 586.839 244.549, 586.435 246.213, 585.535 247.588 C 583.906 250.074, 583.950 250.145, 593.746 260.794 C 608.827 277.188, 612.119 281.246, 611.548 282.735 C 611.259 283.488, 611.467 283.829, 612.011 283.493 C 612.554 283.158, 613.940 284.478, 615.090 286.428 C 617.755 290.944, 618.151 290.735, 629.577 278.773 C 640.548 267.288, 649.338 254.500, 647.992 251.984 C 647.485 251.038, 647.392 249.907, 647.785 249.471 C 648.178 249.036, 647.960 248.989, 647.300 249.368 C 646.594 249.773, 644.742 248.519, 642.800 246.322 C 636.630 239.339, 615.528 218.412, 608.265 212.074 C 604.286 208.601, 601.256 205.395, 601.531 204.949 C 601.807 204.503, 601.506 203.813, 600.862 203.415 C 600.131 202.963, 599.959 203.124, 600.405 203.845 C 601.728 205.986, 600.085 205.025, 591.046 198.371 C 586.093 194.725, 582.327 191.281, 582.675 190.717 C 583.028 190.146, 582.822 189.992, 582.211 190.369 C 581.608 190.743, 578.726 189.536, 575.807 187.689 C 572.888 185.842, 568.151 183.067, 565.279 181.522 C 562.408 179.978, 560.278 178.360, 560.546 177.926 C 560.813 177.493, 560.506 176.813, 559.862 176.415 C 559.131 175.963, 558.959 176.124, 559.405 176.845 C 560.440 178.521, 560.278 178.463, 548.897 173.097 C 527.569 163.038, 500.599 155.485, 475.500 152.542 C 463.777 151.168, 423.484 150.552, 416 151.633 M 429.431 282.987 C 413.108 284.711, 396.209 289.933, 382 297.645 C 373.683 302.158, 359.048 313.281, 352.080 320.383 C 349.099 323.422, 346.217 325.634, 345.675 325.299 C 345.134 324.965, 344.999 325.190, 345.376 325.799 C 345.752 326.408, 343.299 330.631, 339.924 335.183 C 332.986 344.540, 325.590 358.659, 321.423 370.500 C 319.874 374.900, 318.243 378.651, 317.797 378.835 C 317.352 379.020, 317.208 379.527, 317.477 379.963 C 317.746 380.398, 317.079 384.747, 315.994 389.627 C 308.987 421.139, 315.464 457.288, 332.476 481.624 C 334.981 485.208, 336.766 488.570, 336.441 489.095 C 336.117 489.620, 336.275 489.926, 336.792 489.775 C 337.309 489.624, 340.479 492.288, 343.836 495.695 C 351.656 503.632, 360.584 510.374, 362.368 509.689 C 363.133 509.396, 367.641 506.396, 372.387 503.023 C 377.243 499.572, 381.517 497.201, 382.162 497.600 C 382.823 498.009, 383.038 497.870, 382.669 497.273 C 382.311 496.694, 390.750 489.913, 401.764 481.927 C 434.203 458.408, 466.348 433.669, 485.798 417.256 C 489.262 414.333, 492.594 412.249, 493.203 412.625 C 493.811 413.001, 494.036 412.867, 493.702 412.327 C 492.998 411.187, 511.595 394.667, 513.582 394.667 C 514.313 394.667, 514.721 394.357, 514.487 393.979 C 514.253 393.601, 518.661 389.069, 524.281 383.909 C 541.009 368.550, 558.001 351.747, 557.979 350.585 C 557.937 348.397, 547.204 333.827, 539.224 325.125 C 524.467 309.033, 510.485 299.241, 491 291.353 C 472.996 284.064, 449.485 280.869, 429.431 282.987 M 627.325 297.658 C 627.687 298.020, 627.424 299.032, 626.741 299.908 C 625.645 301.314, 625.703 301.341, 627.239 300.137 C 628.803 298.910, 628.825 297, 627.274 297 C 626.940 297, 626.963 297.296, 627.325 297.658 M 689.571 351.567 L 684.642 356.112 686.958 362.306 C 688.231 365.713, 689.309 369.288, 689.351 370.250 C 689.394 371.212, 689.711 372, 690.056 372 C 691.316 372, 694.359 384.041, 693.354 385.046 C 692.814 385.586, 684.525 388.648, 674.936 391.849 L 657.500 397.669 656.812 416.085 C 656.211 432.145, 654.662 446.873, 652.436 457.669 C 651.842 460.548, 652.135 461.059, 655.641 463.264 C 657.764 464.598, 665.496 468.735, 672.824 472.457 C 680.153 476.179, 686.372 479.807, 686.646 480.520 C 686.920 481.233, 685.143 485.345, 682.699 489.658 C 680.254 493.971, 673.443 507.072, 667.564 518.770 C 661.685 530.469, 656.549 539.839, 656.152 539.594 C 655.754 539.348, 655.429 539.927, 655.429 540.880 C 655.429 542.644, 643.193 565.767, 640.066 569.912 L 638.351 572.187 621.186 563.593 C 611.746 558.867, 603.455 555.011, 602.761 555.024 C 602.067 555.037, 600.150 556.879, 598.500 559.117 C 595.388 563.340, 587.791 569.967, 567.750 585.944 C 561.288 591.096, 556 595.445, 556 595.609 C 556 595.772, 557.969 601.215, 560.375 607.703 C 565.721 622.120, 568.352 632.933, 566.666 633.562 C 553.650 638.419, 471.391 664, 468.790 664 C 467.892 664, 466.948 662.819, 466.590 661.250 C 466.246 659.737, 463.633 651.071, 460.785 641.991 L 455.606 625.482 444.778 625.852 C 432.736 626.264, 416.279 624.815, 402.240 622.106 C 395.626 620.830, 392.729 620.631, 392.103 621.409 C 391.620 622.009, 387.544 629.482, 383.045 638.015 C 378.545 646.548, 374.069 654.583, 373.098 655.870 L 371.332 658.211 356.916 650.794 C 348.987 646.715, 335.387 639.397, 326.692 634.532 L 310.885 625.687 304.942 628.528 C 301.674 630.090, 299 631.662, 299 632.023 C 299 632.809, 308.497 638.952, 319.522 645.296 C 334.248 653.770, 361.808 664.451, 378.250 668.057 C 381.413 668.751, 384 669.723, 384 670.218 C 384 670.713, 384.368 670.890, 384.818 670.612 C 385.269 670.334, 390.916 670.967, 397.367 672.020 C 459.610 682.173, 523.325 670.317, 575.743 638.826 C 580.277 636.102, 584.451 634.161, 585.018 634.511 C 585.585 634.862, 585.926 634.713, 585.775 634.180 C 585.624 633.648, 591.125 629.057, 598 623.978 C 612.877 612.989, 637.126 589.058, 647.631 575 C 678.500 533.688, 695.683 489.483, 701.030 437.625 C 702.591 422.483, 701.780 383.253, 699.622 369.500 C 697.100 353.432, 695.817 346.999, 695.137 347.011 C 694.787 347.017, 692.282 349.067, 689.571 351.567 M 551 472.642 C 542.826 479.778, 517.375 499.096, 507 506.038 C 484.983 520.771, 460.212 539.237, 461.770 539.757 C 464.264 540.588, 487.593 533.775, 497.711 529.261 C 522.901 518.020, 541.864 501.392, 552.951 480.824 C 557.759 471.903, 560.288 465.984, 559.263 466.047 C 558.844 466.073, 555.125 469.041, 551 472.642 M 417.872 485.750 C 416.629 487.336, 416.664 487.371, 418.250 486.128 C 419.916 484.821, 420.445 484, 419.622 484 C 419.415 484, 418.627 484.788, 417.872 485.750 M 273.603 568.833 C 273.320 569.292, 273.723 569.667, 274.500 569.667 C 275.277 569.667, 275.680 569.292, 275.397 568.833 C 275.114 568.375, 274.710 568, 274.500 568 C 274.290 568, 273.886 568.375, 273.603 568.833 M 123.629 600.750 C 119.925 606.112, 111.979 617.475, 105.972 626 C 83.863 657.372, 74.647 674.797, 75.199 684.180 C 75.450 688.454, 75.967 689.644, 78.330 691.399 C 82.761 694.689, 98.934 694.321, 113.500 690.598 C 127.255 687.082, 150.217 679.425, 168.500 672.257 C 176.200 669.238, 183.543 666.370, 184.817 665.883 L 187.135 664.998 185.097 662.136 C 183.976 660.562, 183.383 658.915, 183.780 658.477 C 184.176 658.038, 184.001 657.964, 183.391 658.311 C 182.782 658.659, 179.068 655.627, 175.138 651.574 L 167.992 644.205 159.746 649.244 C 139.774 661.447, 129.504 664.338, 121.192 660.098 C 116.463 657.686, 114 653.719, 114 648.518 C 114 643.450, 117.501 633.686, 122.061 626.035 C 126.907 617.905, 136.470 605.439, 137.676 605.679 C 139.019 605.947, 139.153 601.167, 137.873 598.675 C 136.599 596.195, 131.943 591, 130.995 591 C 130.647 591, 127.333 595.388, 123.629 600.750 M 145.719 617.250 C 145.447 617.938, 141.576 623.365, 137.116 629.311 C 129.070 640.038, 127.252 643.608, 128.361 646.498 C 129.278 648.887, 135.890 648.325, 140.962 645.426 C 146.436 642.296, 159 633.054, 159 632.155 C 159 631.795, 156.646 628.013, 153.769 623.750 C 148.692 616.231, 146.745 614.658, 145.719 617.250" stroke="none" fill="black" fill-rule="evenodd"/>
</svg>